<svg xmlns="http://www.w3.org/2000/svg"
    id="photino-logo"
    width="410px"
    height="76px"
    viewBox="0 0 410 76">
    <svg id="photino-circles">
        <circle cx="38" cy="38" r="33"
            fill="none"
            fill-opacity="0"
            stroke="#1E5078"
            stroke-width="8" />
        
        <circle cx="76" cy="38" r="33"
            fill="none"
            fill-opacity="0"
            stroke="#7293ad"
            stroke-width="8"
            stroke-dasharray="13,13">
            <animateTransform
                attributeType="XML"
                attributeName="transform"
                type="rotate"
                from="0 76 38"
                to="360 76 38"
                dur="30s"
                repeatCount="indefinite" />
        </circle>
    </svg>
    <svg id="photino-text" x="116" y="6" viewBox="0 0 500 100">
        <path
            fill="#1E5078"
            stroke="#1E5078"
            stroke-width="2"
            d="M 62.4 79.6 L 71.5 79.6 L 71.5 40.2 A 84.583 84.583 0 0 1 73.899 37.883 C 78.195 33.915 81.65 31.9 86.4 31.9 C 92.411 31.9 95.564 34.897 96.442 41.822 A 36.629 36.629 0 0 1 96.7 46.4 L 96.7 79.6 L 105.8 79.6 L 105.8 45.2 C 105.8 31.3 100.6 23.9 89.2 23.9 A 22.178 22.178 0 0 0 74.893 29.622 A 50.839 50.839 0 0 0 71.2 33 L 71.5 21.8 L 71.5 0 L 62.4 0 L 62.4 79.6 Z M 247 79.6 L 256.1 79.6 L 256.1 40.2 A 84.583 84.583 0 0 1 258.499 37.883 C 262.795 33.915 266.25 31.9 271 31.9 C 277.011 31.9 280.164 34.897 281.042 41.822 A 36.629 36.629 0 0 1 281.3 46.4 L 281.3 79.6 L 290.4 79.6 L 290.4 45.2 C 290.4 31.3 285.2 23.9 273.8 23.9 A 22.654 22.654 0 0 0 259.085 29.929 A 56.757 56.757 0 0 0 255.6 33.1 L 255.3 33.1 L 254.5 25.3 L 247 25.3 L 247 79.6 Z M 208.9 78.9 L 207.1 72.1 A 24.509 24.509 0 0 1 205.624 72.619 C 204.076 73.109 202.32 73.5 200.9 73.5 A 10.953 10.953 0 0 1 197.618 73.055 C 194.09 71.947 192.684 68.807 192.517 64.014 A 29.213 29.213 0 0 1 192.5 63 L 192.5 32.7 L 207.2 32.7 L 207.2 25.3 L 192.5 25.3 L 192.5 10 L 184.9 10 L 183.8 25.3 L 175.3 25.8 L 175.3 32.7 L 183.4 32.7 L 183.4 62.8 A 30.233 30.233 0 0 0 184.283 70.543 C 185.565 75.342 188.341 78.768 193.253 80.182 A 20.408 20.408 0 0 0 198.9 80.9 C 202.071 80.9 205.519 79.977 208.534 79.017 A 96.713 96.713 0 0 0 208.9 78.9 Z M 0 79.6 L 9.3 79.6 L 9.3 50.5 L 21.4 50.5 C 37.5 50.5 48.4 43.3 48.4 27.8 A 25.251 25.251 0 0 0 47.035 19.157 C 43.69 9.931 34.429 6.359 21.862 6.205 A 70.262 70.262 0 0 0 21 6.2 L 0 6.2 L 0 79.6 Z M 144.2 80.9 C 157.5 80.9 169.4 70.5 169.4 52.5 A 34.355 34.355 0 0 0 167.337 40.406 C 163.368 29.81 154.178 23.9 144.2 23.9 C 130.9 23.9 119 34.4 119 52.5 A 33.94 33.94 0 0 0 121.065 64.526 C 125.035 75.048 134.223 80.9 144.2 80.9 Z M 329.2 80.9 C 342.5 80.9 354.4 70.5 354.4 52.5 A 34.355 34.355 0 0 0 352.337 40.406 C 348.368 29.81 339.178 23.9 329.2 23.9 C 315.9 23.9 304 34.4 304 52.5 A 33.94 33.94 0 0 0 306.065 64.526 C 310.035 75.048 319.223 80.9 329.2 80.9 Z M 219.5 79.6 L 228.6 79.6 L 228.6 25.3 L 219.5 25.3 L 219.5 79.6 Z M 144.2 73.3 C 134.8 73.3 128.5 65 128.5 52.5 A 30.572 30.572 0 0 1 129.755 43.529 C 130.718 40.399 132.208 37.768 134.128 35.774 A 13.647 13.647 0 0 1 144.2 31.5 C 152.737 31.5 158.8 38.511 159.841 49.162 A 34.321 34.321 0 0 1 160 52.5 C 160 59.6 157.935 65.345 154.428 68.984 A 13.867 13.867 0 0 1 144.2 73.3 Z M 329.2 73.3 C 319.8 73.3 313.5 65 313.5 52.5 A 30.572 30.572 0 0 1 314.755 43.529 C 315.718 40.399 317.208 37.768 319.128 35.774 A 13.647 13.647 0 0 1 329.2 31.5 C 337.737 31.5 343.8 38.511 344.841 49.162 A 34.321 34.321 0 0 1 345 52.5 C 345 59.6 342.935 65.345 339.428 68.984 A 13.867 13.867 0 0 1 329.2 73.3 Z M 9.3 43 L 9.3 13.8 L 19.8 13.8 A 48.699 48.699 0 0 1 26.747 14.235 C 33.956 15.284 38.048 18.351 38.989 24.723 A 21.082 21.082 0 0 1 39.2 27.8 A 18.646 18.646 0 0 1 38.219 34.149 C 36.297 39.469 31.525 42.264 23.689 42.872 A 45.147 45.147 0 0 1 20.2 43 L 9.3 43 Z M 224.1 14.1 A 6.619 6.619 0 0 0 227.239 13.364 C 229.071 12.385 230.2 10.486 230.2 8 A 6.098 6.098 0 0 0 229.371 4.833 C 228.351 3.134 226.463 2.1 224.1 2.1 C 220.5 2.1 218 4.5 218 8 A 6.689 6.689 0 0 0 218.64 10.956 C 219.464 12.642 221.032 13.744 223.044 14.028 A 7.57 7.57 0 0 0 224.1 14.1 Z" />
    </svg>
</svg>